<svg xmlns="http://www.w3.org/2000/svg" version="1.1" xmlns:xlink="http://www.w3.org/1999/xlink"
    xmlns:svgjs="http://svgjs.com/svgjs" width="512" height="512" x="0" y="0" viewBox="0 0 512 512"
    style="enable-background:new 0 0 512 512" xml:space="preserve" class="">
    <g>
        <path
            d="M371.409 353.164c-6.838 0-12.381 5.543-12.381 12.38v85.175c0 20.137-16.383 36.52-36.52 36.52H76.298c-20.137 0-36.52-16.383-36.52-36.52V61.283c0-20.137 16.383-36.522 36.52-36.522H221.58c.116 0 .23.016.345.017v78.498c0 31.477 25.608 57.083 57.084 57.083h79.929c.031.618.09 1.23.09 1.853v36.683c0 6.837 5.543 12.38 12.381 12.38s12.382-5.543 12.382-12.38v-36.683c0-16.369-6.375-31.759-17.949-43.336L264.914 17.949C253.341 6.375 237.951 0 221.58 0H76.298C42.507 0 15.015 27.49 15.015 61.283v389.436c0 33.79 27.491 61.281 61.283 61.281h246.21c33.792 0 61.283-27.49 61.283-61.281v-85.175c0-6.837-5.544-12.38-12.382-12.38zm-23.867-217.567h-68.534c-17.822 0-32.321-14.5-32.321-32.322V34.81c.234.222.486.42.716.65zM496.985 305.395c0-9.481-4.204-17.98-10.822-23.795a31.504 31.504 0 0 0 3.714-14.856c0-16.643-12.897-30.303-29.219-31.58a12.3 12.3 0 0 0-1.673-.126h-26.562c-6.838 0-12.381 5.543-12.381 12.38v77.302c0 6.837 5.543 12.38 12.381 12.38h32.854c.428 0 .851-.022 1.267-.064 16.895-.672 30.441-14.587 30.441-31.641zm-37.999 6.945H444.805v-13.89h20.473c3.83 0 6.944 3.116 6.944 6.945a6.952 6.952 0 0 1-6.944 6.945zm6.128-45.597c0 3.829-3.115 6.945-6.944 6.945h-13.365v-13.89h13.365c3.829 0 6.944 3.116 6.944 6.945z"
            fill="#000000" data-original="#000000" class=""></path>
        <path
            d="M399.5 235.208c-6.799-.175-12.365 5.284-12.365 12.042v51.079c0 6.044-3.742 11.629-9.503 13.458-9.671 3.07-18.607-4.111-18.607-13.336V247.81c0-6.627-5.105-12.431-11.729-12.601-6.799-.175-12.365 5.284-12.365 12.042v51.535c0 .424.022.843.063 1.256.671 20.451 17.474 36.892 38.086 36.892s37.415-16.441 38.086-36.892c.042-.413.064-.832.064-1.256V247.81c0-6.627-5.106-12.431-11.73-12.602zM285.815 235.037c-20.792 0-37.743 16.585-38.42 37.215a12.63 12.63 0 0 0-.064 1.267v51.2c0 6.837 5.543 12.38 12.381 12.38s12.382-5.543 12.382-12.38v-13.626c4.269 1.637 8.883 2.572 13.721 2.572 21.22 0 38.484-17.263 38.484-38.482 0-.281-.024-.556-.042-.832.018-.277.042-.552.042-.832 0-21.219-17.264-38.482-38.484-38.482zm0 53.869c-7.566 0-13.721-6.157-13.721-13.722v-1.665c0-7.565 6.155-13.722 13.721-13.722s13.721 6.157 13.721 13.722c0 .281.024.556.042.832-.018.276-.042.551-.042.832 0 7.566-6.155 13.723-13.721 13.723zM225.79 259.798c6.838 0 12.382-5.543 12.382-12.38s-5.543-12.38-12.382-12.38h-44.675c-6.838 0-12.381 5.543-12.381 12.38v77.303c0 6.628 5.213 12.024 11.762 12.349.186.02.389.031.62.031h44.675c6.838 0 12.382-5.543 12.382-12.38s-5.543-12.38-12.382-12.38h-32.293v-13.89h32.293c6.838 0 12.382-5.543 12.382-12.381 0-6.837-5.543-12.38-12.382-12.38h-32.293V259.8h32.292zM174.112 455.49H85.08c-6.838 0-12.381-5.543-12.381-12.38s5.543-12.38 12.381-12.38h89.032c6.838 0 12.381 5.543 12.381 12.38s-5.543 12.38-12.381 12.38zM174.112 397.872H85.08c-6.838 0-12.381-5.543-12.381-12.38s5.543-12.38 12.381-12.38h89.032c6.838 0 12.381 5.543 12.381 12.38 0 6.836-5.543 12.38-12.381 12.38z"
            fill="#000000" data-original="#000000" class=""></path>
    </g>
</svg>