<svg xmlns="http://www.w3.org/2000/svg" version="1.1" xmlns:xlink="http://www.w3.org/1999/xlink"
    xmlns:svgjs="http://svgjs.com/svgjs" width="512" height="512" x="0" y="0" viewBox="0 0 512 512"
    style="enable-background:new 0 0 512 512" xml:space="preserve" class="">
    <g>
        <path
            d="M368.691 353.163c-6.838 0-12.381 5.543-12.381 12.38v85.175c0 20.137-16.383 36.52-36.521 36.52H73.579c-20.138 0-36.52-16.383-36.52-36.52V61.283c0-20.138 16.382-36.522 36.52-36.522H218.86c.116 0 .229.016.345.017v78.498c0 31.477 25.608 57.083 57.084 57.083h79.93c.031.618.09 1.23.09 1.853v36.683c0 6.837 5.543 12.38 12.381 12.38s12.382-5.543 12.382-12.38v-36.683c0-16.367-6.375-31.757-17.95-43.336L262.196 17.949C250.622 6.375 235.232 0 218.861 0H73.579C39.788 0 12.297 27.49 12.297 61.283v389.436c0 33.79 27.491 61.281 61.283 61.281h246.21c33.792 0 61.284-27.49 61.284-61.281v-85.175c-.001-6.837-5.544-12.381-12.383-12.381zM243.969 34.808c.235.223.487.421.717.65l100.138 100.138H276.29c-17.822 0-32.321-14.5-32.321-32.322z"
            fill="#000000" data-original="#000000"></path>
        <path
            d="M296.374 235.037c-20.792 0-37.742 16.585-38.419 37.216a12.63 12.63 0 0 0-.064 1.267v51.201c0 6.837 5.543 12.38 12.382 12.38 6.838 0 12.381-5.543 12.381-12.38v-13.626c4.269 1.637 8.883 2.572 13.721 2.572 21.22 0 38.484-17.263 38.484-38.483 0-.281-.023-.556-.042-.832.018-.276.042-.551.042-.832-.001-21.22-17.265-38.483-38.485-38.483zm13.721 40.147c0 7.565-6.155 13.722-13.721 13.722s-13.721-6.157-13.721-13.722v-1.665c0-7.565 6.155-13.721 13.721-13.721s13.721 6.157 13.721 13.721c0 .281.023.556.042.832-.018.278-.042.553-.042.833zM421.476 273.21c-.047-1.886-.333-3.488-.542-4.657l-.038-.216c-3.496-19.608-19.081-33.3-37.899-33.3-21.22 0-38.484 17.263-38.484 38.483v51.201c0 6.837 5.543 12.38 12.382 12.38h26.826c.701 0 1.4-.059 2.09-.177 38.531-6.602 36.661-43.447 35.862-59.183-.084-1.637-.162-3.16-.197-4.531zm-38.893 39.13h-13.307v-38.82c0-7.565 6.155-13.721 13.721-13.721 7.753 0 12.378 6.473 13.52 12.877l.041.231c.061.343.137.684.164.922.039 1.565.125 3.302.22 5.169 1.051 20.704-.795 30.597-14.359 33.342zM487.322 259.798c6.838 0 12.381-5.543 12.381-12.381 0-6.837-5.543-12.38-12.381-12.38h-44.675c-6.838 0-12.382 5.543-12.382 12.38v77.303c0 6.837 5.543 12.38 12.382 12.38 6.838 0 12.381-5.543 12.381-12.38v-26.271h23.676c6.838 0 12.382-5.543 12.382-12.38s-5.543-12.38-12.382-12.38h-23.676v-13.89h32.294zM173.651 397.872H84.619c-6.838 0-12.381-5.543-12.381-12.38s5.543-12.38 12.381-12.38h89.032c6.838 0 12.381 5.543 12.381 12.38.001 6.836-5.542 12.38-12.381 12.38zM173.651 455.49H84.619c-6.838 0-12.381-5.543-12.381-12.38s5.543-12.38 12.381-12.38h89.032c6.838 0 12.381 5.543 12.381 12.38s-5.542 12.38-12.381 12.38z"
            fill="#000000" data-original="#000000"></path>
    </g>
</svg>