<svg xmlns="http://www.w3.org/2000/svg" version="1.1" xmlns:xlink="http://www.w3.org/1999/xlink" xmlns:svgjs="http://svgjs.com/svgjs" width="512" height="512" x="0" y="0" viewBox="0 0 512 512" style="enable-background:new 0 0 512 512" xml:space="preserve" class=""><g><path d="M365.154 353.164c-6.838 0-12.382 5.543-12.382 12.38v85.173c0 20.138-16.383 36.522-36.521 36.522H70.044c-20.138 0-36.52-16.384-36.52-36.522V61.283c0-20.137 16.383-36.522 36.52-36.522h145.281c.116 0 .229.016.345.017v78.497c0 31.477 25.608 57.083 57.084 57.083h79.93c.031.618.09 1.23.09 1.853v36.685c0 6.837 5.543 12.38 12.382 12.38 6.838 0 12.381-5.543 12.381-12.38V162.21c0-16.368-6.375-31.759-17.95-43.333L258.658 17.949C247.082 6.375 231.692 0 215.324 0H70.044C36.252 0 8.761 27.49 8.761 61.283v389.435C8.761 484.51 36.252 512 70.044 512h246.209c33.792 0 61.283-27.49 61.283-61.283v-85.173c0-6.837-5.543-12.38-12.382-12.38zm-23.868-217.567h-68.532c-17.822 0-32.321-14.5-32.321-32.322V34.809c.235.223.487.42.717.65z" fill="#000000" data-original="#000000"></path><path d="M296.602 336.48c6.838 0 12.382-5.543 12.382-12.38v-64.302h14.24c6.838 0 12.382-5.543 12.382-12.38s-5.543-12.38-12.382-12.38H270.5c-6.838 0-12.381 5.543-12.381 12.38s5.543 12.38 12.381 12.38h13.721V324.1c0 6.837 5.543 12.38 12.381 12.38zM490.858 235.036h-52.724c-6.838 0-12.382 5.543-12.382 12.38s5.543 12.38 12.382 12.38h13.721v64.302c0 6.837 5.543 12.38 12.382 12.38 6.838 0 12.381-5.543 12.381-12.38v-64.302h14.24c6.838 0 12.381-5.543 12.381-12.38s-5.543-12.38-12.381-12.38zM412.751 237.156c-5.665-3.825-13.362-2.333-17.19 3.331l-15.841 23.458-15.841-23.458c-3.828-5.669-11.526-7.163-17.19-3.331-5.667 3.828-7.158 11.524-3.331 17.19l21.422 31.722-21.422 31.722c-3.827 5.667-2.335 13.363 3.331 17.19a12.321 12.321 0 0 0 6.919 2.122c3.975 0 7.879-1.912 10.272-5.453l15.841-23.457 15.841 23.457a12.367 12.367 0 0 0 10.272 5.453c2.384 0 4.794-.686 6.919-2.122 5.667-3.828 7.158-11.523 3.331-17.19l-21.422-31.722 21.422-31.722c3.825-5.667 2.333-13.363-3.333-17.19zM170.115 455.49H81.083c-6.838 0-12.382-5.543-12.382-12.38s5.543-12.381 12.382-12.381h89.032c6.838 0 12.382 5.543 12.382 12.381-.001 6.837-5.544 12.38-12.382 12.38zM170.115 397.872H81.083c-6.838 0-12.382-5.543-12.382-12.38s5.543-12.381 12.382-12.381h89.032c6.838 0 12.382 5.543 12.382 12.381-.001 6.837-5.544 12.38-12.382 12.38z" fill="#000000" data-original="#000000"></path></g></svg>